<svg width="24" height="24" viewBox="0 0 24 24" fill="none" xmlns="http://www.w3.org/2000/svg">
<g clip-path="url(#clip0_6009_157)">
<path d="M24 18H23.0769C22.0977 18 21.1585 17.5786 20.4661 16.8284C19.7736 16.0783 19.3846 15.0609 19.3846 14C19.3846 15.0609 18.9956 16.0783 18.3032 16.8284C17.6107 17.5786 16.6716 18 15.6923 18C14.713 18 13.7739 17.5786 13.0815 16.8284C12.389 16.0783 12 15.0609 12 14C12 15.0609 11.611 16.0783 10.9185 16.8284C10.2261 17.5786 9.28695 18 8.30769 18C7.32843 18 6.38928 17.5786 5.69684 16.8284C5.00439 16.0783 4.61538 15.0609 4.61538 14C4.61538 15.0609 4.22637 16.0783 3.53393 16.8284C2.84149 17.5786 1.90234 18 0.923077 18H0" stroke="#2E4C63" stroke-linecap="round" stroke-linejoin="round"/>
<path d="M24 10H23.0769C22.0977 10 21.1585 9.57857 20.4661 8.82843C19.7736 8.07828 19.3846 7.06087 19.3846 6C19.3846 7.06087 18.9956 8.07828 18.3032 8.82843C17.6107 9.57857 16.6716 10 15.6923 10C14.713 10 13.7739 9.57857 13.0815 8.82843C12.389 8.07828 12 7.06087 12 6C12 7.06087 11.611 8.07828 10.9185 8.82843C10.2261 9.57857 9.28695 10 8.30769 10C7.32843 10 6.38928 9.57857 5.69684 8.82843C5.00439 8.07828 4.61538 7.06087 4.61538 6C4.61538 7.06087 4.22637 8.07828 3.53393 8.82843C2.84149 9.57857 1.90234 10 0.923077 10H0" stroke="#2E4C63" stroke-linecap="round" stroke-linejoin="round"/>
</g>
<defs>
<clipPath id="clip0_6009_157">
<rect width="24" height="24" fill="white"/>
</clipPath>
</defs>
</svg>
