<svg width="22" height="22" viewBox="0 0 22 22" fill="none" xmlns="http://www.w3.org/2000/svg">
<path d="M21 20.9998H20.2308C19.4147 20.9998 18.6321 20.6746 18.0551 20.0958C17.478 19.5169 17.1538 18.7317 17.1538 17.9131C17.1538 18.7317 16.8297 19.5169 16.2526 20.0958C15.6756 20.6746 14.893 20.9998 14.0769 20.9998C13.2609 20.9998 12.4782 20.6746 11.9012 20.0958C11.3242 19.5169 11 18.7317 11 17.9131C11 18.7317 10.6758 19.5169 10.0988 20.0958C9.52176 20.6746 8.73913 20.9998 7.92308 20.9998C7.10703 20.9998 6.3244 20.6746 5.74736 20.0958C5.17033 19.5169 4.84615 18.7317 4.84615 17.9131C4.84615 18.7317 4.52198 19.5169 3.94494 20.0958C3.36791 20.6746 2.58528 20.9998 1.76923 20.9998H1" stroke="#2E4C63" stroke-linecap="round" stroke-linejoin="round"/>
<path d="M15.6145 14.826C14.8222 13.8596 13.8263 13.0813 12.6984 12.5469C11.5706 12.0125 10.3388 11.7354 9.09144 11.7354C7.84412 11.7354 6.61229 12.0125 5.48443 12.5469C4.35658 13.0813 3.36071 13.8596 2.56836 14.826" stroke="#2E4C63" stroke-linecap="round" stroke-linejoin="round"/>
<path d="M10.2305 11.8173C10.3228 8.32927 11.3843 5.14991 13.692 4.00781" stroke="#2E4C63" stroke-linecap="round" stroke-linejoin="round"/>
<path d="M9.0918 1.07503C10.0891 0.878033 11.1237 1.07235 11.9824 1.61793C12.8411 2.16351 13.4584 3.01878 13.7072 4.00745" stroke="#2E4C63" stroke-linecap="round" stroke-linejoin="round"/>
<path d="M19.3222 4.57834C18.6141 3.81132 17.6512 3.33004 16.6144 3.22489C15.5776 3.11974 14.5382 3.39796 13.6914 4.00729" stroke="#2E4C63" stroke-linecap="round" stroke-linejoin="round"/>
<path d="M8.04688 5.6587C8.64972 4.76771 9.54329 4.11539 10.5738 3.81398C11.6043 3.51257 12.7073 3.58092 13.693 4.00729C14.6817 4.24987 15.5378 4.86845 16.0803 5.7324C16.6229 6.59635 16.8095 7.63802 16.6007 8.63742" stroke="#2E4C63" stroke-linecap="round" stroke-linejoin="round"/>
</svg>
