<svg width="24" height="24" viewBox="0 0 24 24" fill="none" xmlns="http://www.w3.org/2000/svg">
<rect width="24" height="24" rx="12" fill="#2E4C63"/>
<path d="M11.5098 18.0692C10.9914 18.403 10.3744 18.5493 9.76128 18.4838C9.14819 18.4183 8.57599 18.145 8.1398 17.7092L7.7598 17.3292C7.59125 17.1588 7.49671 16.9288 7.49671 16.6892C7.49671 16.4495 7.59125 16.2195 7.7598 16.0492L9.3598 14.4592C9.52847 14.2912 9.75679 14.197 9.9948 14.197C10.2328 14.197 10.4611 14.2912 10.6298 14.4592V14.4592C10.8002 14.6277 11.0301 14.7223 11.2698 14.7223C11.5095 14.7223 11.7394 14.6277 11.9098 14.4592L14.4598 11.9092C14.6283 11.7388 14.7229 11.5088 14.7229 11.2692C14.7229 11.0295 14.6283 10.7995 14.4598 10.6292V10.6292C14.2919 10.4605 14.1976 10.2322 14.1976 9.99418C14.1976 9.75617 14.2919 9.52785 14.4598 9.35918L15.9998 7.75918C16.1702 7.59063 16.4001 7.49609 16.6398 7.49609C16.8795 7.49609 17.1094 7.59063 17.2798 7.75918L17.6598 8.13918C18.1034 8.56921 18.3861 9.13838 18.4607 9.75168C18.5353 10.365 18.3973 10.9853 18.0698 11.5092C16.3261 14.098 14.0986 16.3254 11.5098 18.0692V18.0692Z" stroke="#F2F2F2" stroke-linecap="round" stroke-linejoin="round"/>
<path d="M12 5.5C11.1464 5.5 10.3012 5.66813 9.51256 5.99478C8.72394 6.32144 8.00739 6.80023 7.40381 7.40381C6.80022 8.00739 6.32144 8.72394 5.99478 9.51256C5.66813 10.3012 5.5 11.1464 5.5 12" stroke="#F2F2F2" stroke-linecap="round" stroke-linejoin="round"/>
<path d="M12 8C10.9391 8 9.92172 8.42143 9.17157 9.17157C8.42143 9.92172 8 10.9391 8 12" stroke="#F2F2F2" stroke-linecap="round" stroke-linejoin="round"/>
</svg>
