<svg width="14" height="16" viewBox="0 0 14 16" fill="none" xmlns="http://www.w3.org/2000/svg">
<path d="M12.432 11.1362C11.5245 10.3095 10.6036 9.80877 9.70727 10.6342L9.17206 11.1331C8.78047 11.4953 8.0524 13.1874 5.23742 9.73821C2.42302 6.2934 4.09783 5.75705 4.49 5.39802L5.02814 4.8985C5.91977 4.07117 5.58328 3.02967 4.94021 1.95758L4.55214 1.30821C3.90613 0.238611 3.20268 -0.463837 2.30871 0.362242L1.82567 0.811809C1.43057 1.11839 0.326148 2.11493 0.0582502 4.00811C-0.264165 6.27967 0.752909 8.88091 3.0831 11.735C5.41035 14.5904 7.68895 16.0247 9.84738 15.9997C11.6412 15.9791 12.7245 14.9538 13.0633 14.581L13.5481 14.1309C14.4397 13.3054 13.8858 12.465 12.9777 11.6364L12.432 11.1362Z" fill="#B7B1AE"/>
</svg>
