<svg width="608" height="244" viewBox="0 0 608 244" fill="none" xmlns="http://www.w3.org/2000/svg">
<path d="M459.991 1.25805V13.898H420.007V43.8039H459.991V56.3943H420.007V86.2902H459.991V98.9797H407.372V1.25805H459.991Z" fill="#577D8F"/>
<path fill-rule="evenodd" clip-rule="evenodd" d="M307.963 32.5904C312.178 33.2145 317.026 36.216 322.399 41.6444L322.379 41.6543C327.801 47.0728 330.493 54.522 330.493 64.1109C330.493 73.6999 327.129 81.9515 320.41 88.8955C314.098 95.4334 307.775 98.7519 301.453 98.841V98.9797H276.4V1.25805H296.169C301.829 1.25805 306.707 3.26894 310.694 7.26102C314.731 11.2927 316.749 15.9485 316.749 21.7831C316.749 27.6176 313.84 31.2036 307.963 32.5904ZM301.462 86.102C304.065 85.9237 307.29 83.8138 311.149 79.7821L311.139 79.792C315.443 75.3938 317.551 70.0644 317.551 64.101C317.551 58.1377 315.443 52.9866 311.189 48.7271C306.934 44.4676 301.779 42.3576 295.813 42.3576H289.045V86.2803H301.462V86.102ZM301.997 16.1367C300.473 14.6508 298.554 13.898 296.169 13.898H289.045V29.3611H297.247C299.127 29.1828 300.74 28.4695 302.086 27.2115C303.57 25.8643 304.282 24.0713 304.282 21.7831C304.282 19.4948 303.57 17.6127 301.997 16.1367Z" fill="#577D8F"/>
<path d="M357.801 1.25805V86.2902H392.719V98.9797H345.166V1.25805H357.801Z" fill="#577D8F"/>
<path fill-rule="evenodd" clip-rule="evenodd" d="M124.828 0C138.591 0 150.375 4.88361 160.151 14.6508C169.916 24.4279 174.804 36.1664 174.804 49.9752C174.804 63.7841 169.916 75.5721 160.151 85.3393C150.375 95.1164 138.63 100 124.828 100C111.025 100 99.2408 95.1164 89.4255 85.3393C79.6895 75.5721 74.8115 63.7841 74.8115 49.9752C74.8115 36.1664 79.6993 24.4279 89.4255 14.6508C99.2309 4.88361 111.025 0 124.828 0ZM124.828 87.3205C135.088 87.3205 143.874 83.685 151.137 76.3844C158.399 69.0738 162.08 60.2476 162.08 49.9851C162.08 39.7226 158.399 30.9262 151.137 23.6256C143.874 16.4141 135.138 12.739 124.828 12.739C114.518 12.739 105.741 16.4141 98.4789 23.6256C91.2165 30.9361 87.5852 39.683 87.5852 49.9851C87.5852 60.2873 91.2165 69.0738 98.4789 76.3844C105.781 83.6949 114.567 87.3205 124.828 87.3205Z" fill="#577D8F"/>
<path d="M245.391 66.5181V1.25805H258.056V70.1139C256.977 77.9594 253.752 84.5963 248.379 90.0149C241.878 96.5131 233.993 99.7821 224.85 99.7821C215.708 99.7821 207.861 96.5032 201.361 90.0545C194.87 83.5067 191.635 75.7107 191.635 66.5181V1.25805H204.369V66.528C204.369 72.1644 206.348 76.9688 210.335 81.0005C214.372 84.9827 219.171 87.0035 224.86 87.0035C230.549 87.0035 235.388 84.9827 239.425 81.0401C243.372 77.0084 245.391 72.2041 245.391 66.5181Z" fill="#577D8F"/>
<path fill-rule="evenodd" clip-rule="evenodd" d="M9.28095 1.24814C25.1516 1.3373 37.5195 5.82467 46.3948 14.74C56.121 24.5567 61.0088 36.2952 61.0088 50.104C61.0088 63.9128 56.121 75.7008 46.3948 85.4681C37.5097 94.3933 25.1417 98.8707 9.28095 98.9698H0V1.24814H9.28095ZM12.6351 86.1516C22.678 86.1516 30.92 82.8727 37.3316 76.424C44.594 69.2125 48.2253 60.3764 48.2253 50.1139C48.2253 39.8514 44.594 31.1045 37.3316 23.8039C30.92 17.3948 22.678 14.1654 12.6351 14.1654V86.1516Z" fill="#577D8F"/>
<path fill-rule="evenodd" clip-rule="evenodd" d="M524.612 57.9593C520.12 62.4368 516.676 64.9826 514.302 65.5274H514.311L536 98.9202H520.674L501.172 67.677H489.605V98.9202H476.96V1.24808H504.704C512.511 2.27829 519.18 5.55715 524.612 10.936C531.063 17.4838 534.288 25.151 534.288 34.3833C534.288 43.6156 531.063 51.4512 524.612 57.9593ZM489.605 13.9375V54.9876H501.172C506.772 54.9876 511.571 52.9668 515.558 48.9351C519.595 44.9529 521.614 40.0198 521.614 34.3734C521.614 28.727 519.595 23.8831 515.558 19.9405C511.571 15.9583 506.772 13.9375 501.172 13.9375H489.605Z" fill="#577D8F"/>
<path fill-rule="evenodd" clip-rule="evenodd" d="M224.463 154.653C214.687 144.891 202.921 140 189.114 140C175.307 140 163.491 144.891 153.706 154.653C143.93 164.416 139.037 176.208 139.037 189.96C139.037 203.713 143.93 215.584 153.706 225.356C163.491 235.069 175.287 240 189.114 240C202.94 240 214.687 235.069 224.463 225.356C234.288 215.584 239.131 203.762 239.131 189.96C239.131 176.158 234.288 164.416 224.463 154.653ZM215.489 216.347C208.17 223.644 199.424 227.277 189.114 227.277C178.803 227.277 170.038 223.644 162.729 216.347C155.459 209.04 151.824 200.307 151.824 189.96C151.824 179.614 155.459 170.921 162.729 163.663C169.998 156.396 178.793 152.772 189.114 152.772C199.434 152.772 208.17 156.396 215.489 163.663C222.709 170.921 226.394 179.693 226.394 189.96C226.394 200.228 222.709 209.04 215.489 216.347Z" fill="#577D8F"/>
<path fill-rule="evenodd" clip-rule="evenodd" d="M27.7719 141.257C35.5765 142.337 42.2719 145.604 47.6895 150.98C54.1571 157.525 57.3859 165.188 57.3859 174.416C57.3859 183.644 54.1571 191.485 47.6895 197.98C41.1923 204.426 33.3777 207.703 24.2261 207.703H12.6578V238.921H0V141.257H27.7719ZM24.2261 195.02C29.8419 195.02 34.6356 192.96 38.627 188.97C42.668 184.98 44.6885 180.059 44.6885 174.416C44.6885 168.772 42.668 163.931 38.627 159.941C34.6356 156 29.8419 153.98 24.2261 153.98H12.6578V195.02H24.2261Z" fill="#577D8F"/>
<path fill-rule="evenodd" clip-rule="evenodd" d="M117.644 197.98C113.157 202.455 109.74 204.97 107.363 205.545L129.084 238.921H113.732L94.1706 207.703H82.6419V238.921H69.9941V141.257H97.7164C105.571 142.337 112.216 145.604 117.644 150.98C124.102 157.525 127.38 165.188 127.38 174.416C127.38 183.644 124.102 191.485 117.644 197.98ZM82.6419 153.98V195.02H94.1706C99.7864 195.02 104.63 192.96 108.621 188.97C112.662 184.98 114.633 180.059 114.633 174.416C114.633 168.772 112.662 163.931 108.621 159.941C104.63 156 99.7864 153.98 94.1706 153.98H82.6419Z" fill="#577D8F"/>
<path d="M520.168 141.257V153.941H497.378V238.921H484.691V153.941H461.891V141.257H520.168Z" fill="#577D8F"/>
<path fill-rule="evenodd" clip-rule="evenodd" d="M443.181 197.98C438.694 202.455 435.238 204.97 432.861 205.545L454.581 238.921H439.229L419.718 207.703H408.139V238.921H395.491V141.257H423.263C431.068 142.337 437.753 145.604 443.181 150.98C449.639 157.525 452.877 165.188 452.877 174.416C452.877 183.644 449.639 191.485 443.181 197.98ZM408.139 153.98V195.02H419.718C425.323 195.02 430.127 192.96 434.119 188.97C438.16 184.98 440.18 180.059 440.18 174.416C440.18 168.772 438.16 163.931 434.119 159.941C430.127 156 425.323 153.98 419.718 153.98H408.139Z" fill="#577D8F"/>
<path d="M338.64 153.941V183.772H378.664V196.416H338.64V226.248H378.664V238.921H325.992V141.257H378.664V153.941H338.64Z" fill="#577D8F"/>
<path fill-rule="evenodd" clip-rule="evenodd" d="M281.799 141.257C289.643 142.337 296.289 145.604 301.716 150.98C308.174 157.525 311.403 165.188 311.403 174.416C311.403 183.644 308.174 191.485 301.716 197.98C295.209 204.426 287.395 207.703 278.243 207.703H266.675V238.921H254.066V141.257H281.799ZM278.243 195.02C283.859 195.02 288.662 192.96 292.703 188.97C296.685 184.98 298.705 180.059 298.705 174.416C298.705 168.772 296.685 163.931 292.703 159.941C288.662 156 283.859 153.98 278.243 153.98H266.675V195.02H278.243Z" fill="#577D8F"/>
<path d="M527.686 141.257L561.489 199.743V238.921H574.137V199.743L608 141.257H593.401L567.778 185.455L542.235 141.257H527.686Z" fill="#577D8F"/>
</svg>
