<svg width="32" height="32" viewBox="0 0 32 32" fill="none" xmlns="http://www.w3.org/2000/svg">
<rect width="32" height="32" rx="4" fill="#2E4C63"/>
<path d="M10.806 25H8.49121V27.5H10.806V25Z" fill="#F2F2F2"/>
<path d="M23.7683 18.2504C23.7683 20.8666 22.8856 23.0969 21.1103 24.9498C19.4938 26.6343 17.2736 27.5004 14.3456 27.5004H12.6572V9.00045H14.3456C14.5446 9.0046 15.0549 8.99113 15.2498 9.00049C15.7476 9.5599 16.0986 10.1858 16.3575 10.8398C16.4525 11.0748 16.5294 11.3192 16.5924 11.5687C16.1626 11.4835 15.4333 11.446 14.9574 11.446V25.0756C16.7868 25.0756 18.2943 24.4591 19.4638 23.2363C20.7854 21.8627 21.4472 20.2021 21.4472 18.2494C21.4472 16.6211 20.9803 15.1862 20.0476 13.954C20.0566 13.684 20.0566 13.5048 20.0566 13.2802C20.0566 12.7156 20.0157 12.1645 19.9297 11.628C19.9067 11.4398 19.8707 11.2568 19.8347 11.0728C19.7937 10.8565 19.7397 10.6444 19.6808 10.4333C19.8203 10.4825 19.9394 10.5555 20.0589 10.6422C20.4351 10.9149 20.7875 11.2183 21.1103 11.5583C22.8856 13.4164 23.7683 15.6468 23.7683 18.2484V18.2504Z" fill="#F2F2F2"/>
<path d="M19.5448 14.5347C19.2965 16.5948 18.4355 18.4012 16.9625 19.945C16.5922 20.3303 15.8706 21.1902 15.4357 21.4894V18.25C15.9617 17.5948 16.6775 16.3586 16.9335 15.5848C17.0057 15.3665 17.0528 15.1454 17.1035 14.9201C17.2229 14.39 17.2814 13.8343 17.2814 13.2532C17.2814 11.306 16.6184 9.64323 15.2975 8.27022C14.1452 7.06411 12.6739 6.44583 10.8817 6.42694H10.8081V20.0584C11.2511 20.0584 11.7883 20.0217 12.1949 19.945V22.353C11.5965 22.4486 10.8585 22.5 10.1956 22.5H8.49121V4.00002C11.5861 4.00002 14.4751 3.96643 16.9615 6.555C17.6887 7.31528 18.2673 8.14472 18.6974 9.035C18.7616 9.16791 18.8107 9.29812 18.868 9.43412C19.1658 10.1415 19.3708 10.8851 19.4883 11.665C19.566 12.1783 19.6023 12.7052 19.6023 13.2521C19.6023 13.6884 19.5964 14.1073 19.5448 14.5347Z" fill="#F2F2F2"/>
</svg>
