<svg width="88" height="88" viewBox="0 0 88 88" fill="none" xmlns="http://www.w3.org/2000/svg">
<rect width="88" height="88" rx="4" fill="#2E4C63"/>
<path d="M28.4171 69.5H21.4727V76.5833H28.4171V69.5Z" fill="#F2F2F2"/>
<path d="M67.306 50.3751C67.306 57.7875 64.6579 64.1068 59.3318 69.3567C54.4825 74.1294 47.8218 76.5835 39.0379 76.5835H33.9727V24.1668H39.0379C39.6347 24.1786 41.1656 24.1404 41.7504 24.1669C43.2439 25.7519 44.2967 27.5253 45.0735 29.3784C45.3584 30.0442 45.5893 30.7365 45.7782 31.4436C44.4887 31.202 42.3007 31.096 40.8732 31.096V69.7132C46.3613 69.7132 50.8837 67.9662 54.3925 64.5016C58.3571 60.6098 60.3424 55.9049 60.3424 50.3722C60.3424 45.7586 58.9419 41.693 56.1439 38.2019C56.1709 37.437 56.1709 36.9293 56.1709 36.2929C56.1709 34.6931 56.0479 33.1317 55.79 31.6115C55.721 31.0783 55.6131 30.5598 55.5051 30.0383C55.3822 29.4255 55.2202 28.8245 55.0433 28.2265C55.4618 28.3661 55.8192 28.5728 56.1777 28.8183C57.3062 29.5912 58.3635 30.4506 59.3318 31.4141C64.6579 36.6788 67.306 42.9981 67.306 50.3692V50.3751Z" fill="#F2F2F2"/>
<path d="M54.6335 39.8484C53.8885 45.6852 51.3054 50.8034 46.8866 55.1776C45.7756 56.2691 43.6107 58.7056 42.306 59.5533V50.375C43.8841 48.5187 46.0315 45.0161 46.7995 42.8235C47.0161 42.205 47.1574 41.5787 47.3095 40.9404C47.6676 39.4383 47.8433 37.8639 47.8433 36.2173C47.8433 30.7002 45.8543 25.9892 41.8916 22.0989C38.4345 18.6816 34.0207 16.9299 28.6443 16.8763H28.4233V55.4988C29.7523 55.4988 31.3638 55.3947 32.5838 55.1776V62.0003C30.7886 62.2709 28.5746 62.4167 26.5857 62.4167H21.4727V10.0001C30.7573 10.0001 39.4244 9.90489 46.8836 17.2392C49.065 19.3933 50.8009 21.7434 52.0912 24.2658C52.2838 24.6424 52.4311 25.0113 52.6029 25.3967C53.4964 27.401 54.1113 29.5079 54.4639 31.7174C54.697 33.1717 54.806 34.6648 54.806 36.2143C54.806 37.4506 54.7881 38.6374 54.6335 39.8484Z" fill="#F2F2F2"/>
</svg>
