<svg width="176" height="48" viewBox="0 0 176 48" fill="none" xmlns="http://www.w3.org/2000/svg">
<path d="M32.489 28.8813C32.489 34.2076 30.6197 38.7485 26.86 42.5209C23.4369 45.9504 18.7351 47.7138 12.5345 47.7138H8.95898V10.0488H12.5345C12.9558 10.0573 13.3792 10.0679 13.792 10.0869C14.8463 11.2259 15.6507 12.4622 16.199 13.7937C16.4001 14.2722 16.5631 14.7697 16.6965 15.2777C15.7862 15.1041 14.8378 15.0279 13.8301 15.0279V42.7771C17.7042 42.7771 20.8965 41.5217 23.3734 39.0322C26.172 36.2356 27.5734 32.8549 27.5734 28.8792C27.5734 25.564 26.5848 22.6426 24.6097 20.134L24.6287 19.8271L24.5991 19.7869L24.6097 19.5371C24.6203 19.192 24.6287 18.9337 24.6287 18.7622C24.6287 17.6127 24.5419 16.4907 24.3599 15.3984C24.3112 15.0152 24.235 14.6426 24.1588 14.2679C24.072 13.8276 23.9577 13.3957 23.8328 12.966L24.1863 13.11L24.1757 13.0824C25.1453 13.7154 26.0471 14.4331 26.86 15.2566C30.6197 19.0396 32.489 23.5805 32.489 28.8771V28.8813Z" fill="#878FA1"/>
<path d="M23.2654 20.2399L23.2951 20.2696C22.969 24.8761 21.1273 28.8814 17.7719 32.2622C16.995 33.0391 16.1524 33.7292 15.24 34.3326V27.7996C16.4954 26.2966 17.3972 24.6284 17.9158 22.8184H17.8862C18.2588 21.544 18.4409 20.1934 18.4409 18.7665C18.4409 14.8396 17.05 11.4863 14.2789 8.71731C11.8613 6.28492 8.77481 5.03803 5.01508 4.99993H4.86054V32.4908C5.78989 32.4908 6.68325 32.4252 7.53638 32.2706V37.1269C6.28103 37.3196 4.96639 37.4149 3.57555 37.4149H0.0296375V22.8163H0V0.105512C6.49272 0.105512 12.5536 0.0377692 17.7698 5.2582C19.4189 6.91578 20.7039 8.73637 21.6248 10.6988L21.5951 10.6797C22.3149 12.2209 22.8018 13.8488 23.0707 15.5636C23.2337 16.5988 23.3099 17.6615 23.3099 18.7644C23.3099 19.2619 23.2993 19.7509 23.2612 20.2378L23.2654 20.2399Z" fill="#2E4C63"/>
<path d="M4.85615 42.8682H0.00195312V47.716H4.85615V42.8682Z" fill="#DAA261"/>
<path d="M143.968 2.9701V0.268854H132.71V21.1527H143.968V18.4409H135.414V12.0519H143.968V9.36121H135.414V2.9701H143.968ZM112.123 17.05C111.297 17.9116 110.607 18.3625 110.05 18.4006V18.4387H107.394V9.05213H108.842C110.118 9.05213 111.221 9.50304 112.131 10.4133C113.042 11.3236 113.493 12.4245 113.493 13.6989C113.493 14.9733 113.042 16.1122 112.121 17.0521L112.123 17.05ZM107.394 2.9701H108.918C109.428 2.9701 109.839 3.13099 110.165 3.44853C110.501 3.76396 110.654 4.16618 110.654 4.6552C110.654 5.14422 110.501 5.52739 110.184 5.8153C109.896 6.08415 109.551 6.23657 109.149 6.27468H107.394V2.9701ZM114.53 8.89971C113.38 7.73961 112.343 7.09817 111.441 6.96481C112.699 6.66843 113.321 5.90209 113.321 4.6552C113.321 3.40831 112.889 2.41334 112.026 1.55173C111.172 0.698597 110.129 0.268854 108.918 0.268854H104.688V21.1527H110.048V21.123C111.401 21.104 112.754 20.3948 114.104 18.9976C115.542 17.5136 116.262 15.7502 116.262 13.701C116.262 11.6518 115.686 10.0598 114.526 8.90183L114.53 8.89971ZM112.123 17.05C111.297 17.9116 110.607 18.3625 110.05 18.4006V18.4387H107.394V9.05213H108.842C110.118 9.05213 111.221 9.50304 112.131 10.4133C113.042 11.3236 113.493 12.4245 113.493 13.6989C113.493 14.9733 113.042 16.1122 112.121 17.0521L112.123 17.05ZM107.394 2.9701H108.918C109.428 2.9701 109.839 3.13099 110.165 3.44853C110.501 3.76396 110.654 4.16618 110.654 4.6552C110.654 5.14422 110.501 5.52739 110.184 5.8153C109.896 6.08415 109.551 6.23657 109.149 6.27468H107.394V2.9701ZM114.53 8.89971C113.38 7.73961 112.343 7.09817 111.441 6.96481C112.699 6.66843 113.321 5.90209 113.321 4.6552C113.321 3.40831 112.889 2.41334 112.026 1.55173C111.172 0.698597 110.129 0.268854 108.918 0.268854H104.688V21.1527H110.048V21.123C111.401 21.104 112.754 20.3948 114.104 18.9976C115.542 17.5136 116.262 15.7502 116.262 13.701C116.262 11.6518 115.686 10.0598 114.526 8.90183L114.53 8.89971ZM112.123 17.05C111.297 17.9116 110.607 18.3625 110.05 18.4006V18.4387H107.394V9.05213H108.842C110.118 9.05213 111.221 9.50304 112.131 10.4133C113.042 11.3236 113.493 12.4245 113.493 13.6989C113.493 14.9733 113.042 16.1122 112.121 17.0521L112.123 17.05ZM107.394 2.9701H108.918C109.428 2.9701 109.839 3.13099 110.165 3.44853C110.501 3.76396 110.654 4.16618 110.654 4.6552C110.654 5.14422 110.501 5.52739 110.184 5.8153C109.896 6.08415 109.551 6.23657 109.149 6.27468H107.394V2.9701ZM114.53 8.89971C113.38 7.73961 112.343 7.09817 111.441 6.96481C112.699 6.66843 113.321 5.90209 113.321 4.6552C113.321 3.40831 112.889 2.41334 112.026 1.55173C111.172 0.698597 110.129 0.268854 108.918 0.268854H104.688V21.1527H110.048V21.123C111.401 21.104 112.754 20.3948 114.104 18.9976C115.542 17.5136 116.262 15.7502 116.262 13.701C116.262 11.6518 115.686 10.0598 114.526 8.90183L114.53 8.89971ZM112.123 17.05C111.297 17.9116 110.607 18.3625 110.05 18.4006V18.4387H107.394V9.05213H108.842C110.118 9.05213 111.221 9.50304 112.131 10.4133C113.042 11.3236 113.493 12.4245 113.493 13.6989C113.493 14.9733 113.042 16.1122 112.121 17.0521L112.123 17.05ZM107.394 2.9701H108.918C109.428 2.9701 109.839 3.13099 110.165 3.44853C110.501 3.76396 110.654 4.16618 110.654 4.6552C110.654 5.14422 110.501 5.52739 110.184 5.8153C109.896 6.08415 109.551 6.23657 109.149 6.27468H107.394V2.9701ZM114.53 8.89971C113.38 7.73961 112.343 7.09817 111.441 6.96481C112.699 6.66843 113.321 5.90209 113.321 4.6552C113.321 3.40831 112.889 2.41334 112.026 1.55173C111.172 0.698597 110.129 0.268854 108.918 0.268854H104.688V21.1527H110.048V21.123C111.401 21.104 112.754 20.3948 114.104 18.9976C115.542 17.5136 116.262 15.7502 116.262 13.701C116.262 11.6518 115.686 10.0598 114.526 8.90183L114.53 8.89971ZM112.123 17.05C111.297 17.9116 110.607 18.3625 110.05 18.4006V18.4387H107.394V9.05213H108.842C110.118 9.05213 111.221 9.50304 112.131 10.4133C113.042 11.3236 113.493 12.4245 113.493 13.6989C113.493 14.9733 113.042 16.1122 112.121 17.0521L112.123 17.05ZM107.394 2.9701H108.918C109.428 2.9701 109.839 3.13099 110.165 3.44853C110.501 3.76396 110.654 4.16618 110.654 4.6552C110.654 5.14422 110.501 5.52739 110.184 5.8153C109.896 6.08415 109.551 6.23657 109.149 6.27468H107.394V2.9701ZM111.441 6.96481C112.699 6.66843 113.321 5.90209 113.321 4.6552C113.321 3.40831 112.889 2.41334 112.026 1.55173C111.172 0.698597 110.129 0.268854 108.918 0.268854H104.688V21.1527H110.048V21.123C111.401 21.104 112.754 20.3948 114.104 18.9976C115.542 17.5136 116.262 15.7502 116.262 13.701C116.262 11.6518 115.686 10.0598 114.526 8.90183C113.376 7.74173 112.339 7.10029 111.437 6.96692L111.441 6.96481ZM122.104 18.4387V0.268854H119.401V21.1527H129.575V18.4409H122.104V18.4387ZM112.123 17.05C111.297 17.9116 110.607 18.3625 110.05 18.4006V18.4387H107.394V9.05213H108.842C110.118 9.05213 111.221 9.50304 112.131 10.4133C113.042 11.3236 113.493 12.4245 113.493 13.6989C113.493 14.9733 113.042 16.1122 112.121 17.0521L112.123 17.05ZM107.394 2.9701H108.918C109.428 2.9701 109.839 3.13099 110.165 3.44853C110.501 3.76396 110.654 4.16618 110.654 4.6552C110.654 5.14422 110.501 5.52739 110.184 5.8153C109.896 6.08415 109.551 6.23657 109.149 6.27468H107.394V2.9701ZM114.53 8.89971C113.38 7.73961 112.343 7.09817 111.441 6.96481C112.699 6.66843 113.321 5.90209 113.321 4.6552C113.321 3.40831 112.889 2.41334 112.026 1.55173C111.172 0.698597 110.129 0.268854 108.918 0.268854H104.688V21.1527H110.048V21.123C111.401 21.104 112.754 20.3948 114.104 18.9976C115.542 17.5136 116.262 15.7502 116.262 13.701C116.262 11.6518 115.686 10.0598 114.526 8.90183L114.53 8.89971ZM112.123 17.05C111.297 17.9116 110.607 18.3625 110.05 18.4006V18.4387H107.394V9.05213H108.842C110.118 9.05213 111.221 9.50304 112.131 10.4133C113.042 11.3236 113.493 12.4245 113.493 13.6989C113.493 14.9733 113.042 16.1122 112.121 17.0521L112.123 17.05ZM107.394 2.9701H108.918C109.428 2.9701 109.839 3.13099 110.165 3.44853C110.501 3.76396 110.654 4.16618 110.654 4.6552C110.654 5.14422 110.501 5.52739 110.184 5.8153C109.896 6.08415 109.551 6.23657 109.149 6.27468H107.394V2.9701ZM114.53 8.89971C113.38 7.73961 112.343 7.09817 111.441 6.96481C112.699 6.66843 113.321 5.90209 113.321 4.6552C113.321 3.40831 112.889 2.41334 112.026 1.55173C111.172 0.698597 110.129 0.268854 108.918 0.268854H104.688V21.1527H110.048V21.123C111.401 21.104 112.754 20.3948 114.104 18.9976C115.542 17.5136 116.262 15.7502 116.262 13.701C116.262 11.6518 115.686 10.0598 114.526 8.90183L114.53 8.89971ZM112.123 17.05C111.297 17.9116 110.607 18.3625 110.05 18.4006V18.4387H107.394V9.05213H108.842C110.118 9.05213 111.221 9.50304 112.131 10.4133C113.042 11.3236 113.493 12.4245 113.493 13.6989C113.493 14.9733 113.042 16.1122 112.121 17.0521L112.123 17.05ZM107.394 2.9701H108.918C109.428 2.9701 109.839 3.13099 110.165 3.44853C110.501 3.76396 110.654 4.16618 110.654 4.6552C110.654 5.14422 110.501 5.52739 110.184 5.8153C109.896 6.08415 109.551 6.23657 109.149 6.27468H107.394V2.9701ZM114.53 8.89971C113.38 7.73961 112.343 7.09817 111.441 6.96481C112.699 6.66843 113.321 5.90209 113.321 4.6552C113.321 3.40831 112.889 2.41334 112.026 1.55173C111.172 0.698597 110.129 0.268854 108.918 0.268854H104.688V21.1527H110.048V21.123C111.401 21.104 112.754 20.3948 114.104 18.9976C115.542 17.5136 116.262 15.7502 116.262 13.701C116.262 11.6518 115.686 10.0598 114.526 8.90183L114.53 8.89971ZM112.123 17.05C111.297 17.9116 110.607 18.3625 110.05 18.4006V18.4387H107.394V9.05213H108.842C110.118 9.05213 111.221 9.50304 112.131 10.4133C113.042 11.3236 113.493 12.4245 113.493 13.6989C113.493 14.9733 113.042 16.1122 112.121 17.0521L112.123 17.05ZM107.394 2.9701H108.918C109.428 2.9701 109.839 3.13099 110.165 3.44853C110.501 3.76396 110.654 4.16618 110.654 4.6552C110.654 5.14422 110.501 5.52739 110.184 5.8153C109.896 6.08415 109.551 6.23657 109.149 6.27468H107.394V2.9701ZM114.53 8.89971C113.38 7.73961 112.343 7.09817 111.441 6.96481C112.699 6.66843 113.321 5.90209 113.321 4.6552C113.321 3.40831 112.889 2.41334 112.026 1.55173C111.172 0.698597 110.129 0.268854 108.918 0.268854H104.688V21.1527H110.048V21.123C111.401 21.104 112.754 20.3948 114.104 18.9976C115.542 17.5136 116.262 15.7502 116.262 13.701C116.262 11.6518 115.686 10.0598 114.526 8.90183L114.53 8.89971ZM112.123 17.05C111.297 17.9116 110.607 18.3625 110.05 18.4006V18.4387H107.394V9.05213H108.842C110.118 9.05213 111.221 9.50304 112.131 10.4133C113.042 11.3236 113.493 12.4245 113.493 13.6989C113.493 14.9733 113.042 16.1122 112.121 17.0521L112.123 17.05ZM107.394 2.9701H108.918C109.428 2.9701 109.839 3.13099 110.165 3.44853C110.501 3.76396 110.654 4.16618 110.654 4.6552C110.654 5.14422 110.501 5.52739 110.184 5.8153C109.896 6.08415 109.551 6.23657 109.149 6.27468H107.394V2.9701ZM114.53 8.89971C113.38 7.73961 112.343 7.09817 111.441 6.96481C112.699 6.66843 113.321 5.90209 113.321 4.6552C113.321 3.40831 112.889 2.41334 112.026 1.55173C111.172 0.698597 110.129 0.268854 108.918 0.268854H104.688V21.1527H110.048V21.123C111.401 21.104 112.754 20.3948 114.104 18.9976C115.542 17.5136 116.262 15.7502 116.262 13.701C116.262 11.6518 115.686 10.0598 114.526 8.90183L114.53 8.89971ZM112.123 17.05C111.297 17.9116 110.607 18.3625 110.05 18.4006V18.4387H107.394V9.05213H108.842C110.118 9.05213 111.221 9.50304 112.131 10.4133C113.042 11.3236 113.493 12.4245 113.493 13.6989C113.493 14.9733 113.042 16.1122 112.121 17.0521L112.123 17.05ZM107.394 2.9701H108.918C109.428 2.9701 109.839 3.13099 110.165 3.44853C110.501 3.76396 110.654 4.16618 110.654 4.6552C110.654 5.14422 110.501 5.52739 110.184 5.8153C109.896 6.08415 109.551 6.23657 109.149 6.27468H107.394V2.9701ZM114.53 8.89971C113.38 7.73961 112.343 7.09817 111.441 6.96481C112.699 6.66843 113.321 5.90209 113.321 4.6552C113.321 3.40831 112.889 2.41334 112.026 1.55173C111.172 0.698597 110.129 0.268854 108.918 0.268854H104.688V21.1527H110.048V21.123C111.401 21.104 112.754 20.3948 114.104 18.9976C115.542 17.5136 116.262 15.7502 116.262 13.701C116.262 11.6518 115.686 10.0598 114.526 8.90183L114.53 8.89971ZM77.8874 16.3239C76.3335 17.8841 74.4537 18.661 72.2584 18.661C70.0631 18.661 68.1832 17.8862 66.6209 16.3239C65.0671 14.7616 64.2901 12.8838 64.2901 10.6822C64.2901 8.48055 65.0671 6.61127 66.6209 5.04895C68.1748 3.50781 70.0525 2.72241 72.2584 2.72241C74.4642 2.72241 76.3335 3.50781 77.8874 5.04895C79.4412 6.60916 80.2287 8.48902 80.2287 10.6822C80.2287 12.8754 79.4412 14.7616 77.8874 16.3239ZM79.8159 3.13099C77.7244 1.04366 75.2031 0 72.2584 0C69.3137 0 66.7818 1.04366 64.6839 3.13099C62.6029 5.22043 61.5571 7.72903 61.5571 10.6801C61.5571 13.6311 62.6008 16.1503 64.6839 18.2376C66.7839 20.3271 69.3052 21.3707 72.2584 21.3707C75.2115 21.3707 77.7244 20.3271 79.8159 18.2376C81.9054 16.1503 82.9511 13.6311 82.9511 10.6801C82.9511 7.72903 81.9054 5.22043 79.8159 3.13099ZM77.8874 16.3239C76.3335 17.8841 74.4537 18.661 72.2584 18.661C70.0631 18.661 68.1832 17.8862 66.6209 16.3239C65.0671 14.7616 64.2901 12.8838 64.2901 10.6822C64.2901 8.48055 65.0671 6.61127 66.6209 5.04895C68.1748 3.50781 70.0525 2.72241 72.2584 2.72241C74.4642 2.72241 76.3335 3.50781 77.8874 5.04895C79.4412 6.60916 80.2287 8.48902 80.2287 10.6822C80.2287 12.8754 79.4412 14.7616 77.8874 16.3239ZM79.8159 3.13099C77.7244 1.04366 75.2031 0 72.2584 0C69.3137 0 66.7818 1.04366 64.6839 3.13099C62.6029 5.22043 61.5571 7.72903 61.5571 10.6801C61.5571 13.6311 62.6008 16.1503 64.6839 18.2376C66.7839 20.3271 69.3052 21.3707 72.2584 21.3707C75.2115 21.3707 77.7244 20.3271 79.8159 18.2376C81.9054 16.1503 82.9511 13.6311 82.9511 10.6801C82.9511 7.72903 81.9054 5.22043 79.8159 3.13099ZM77.8874 16.3239C76.3335 17.8841 74.4537 18.661 72.2584 18.661C70.0631 18.661 68.1832 17.8862 66.6209 16.3239C65.0671 14.7616 64.2901 12.8838 64.2901 10.6822C64.2901 8.48055 65.0671 6.61127 66.6209 5.04895C68.1748 3.50781 70.0525 2.72241 72.2584 2.72241C74.4642 2.72241 76.3335 3.50781 77.8874 5.04895C79.4412 6.60916 80.2287 8.48902 80.2287 10.6822C80.2287 12.8754 79.4412 14.7616 77.8874 16.3239ZM79.8159 3.13099C77.7244 1.04366 75.2031 0 72.2584 0C69.3137 0 66.7818 1.04366 64.6839 3.13099C62.6029 5.22043 61.5571 7.72903 61.5571 10.6801C61.5571 13.6311 62.6008 16.1503 64.6839 18.2376C66.7839 20.3271 69.3052 21.3707 72.2584 21.3707C75.2115 21.3707 77.7244 20.3271 79.8159 18.2376C81.9054 16.1503 82.9511 13.6311 82.9511 10.6801C82.9511 7.72903 81.9054 5.22043 79.8159 3.13099ZM77.8874 16.3239C76.3335 17.8841 74.4537 18.661 72.2584 18.661C70.0631 18.661 68.1832 17.8862 66.6209 16.3239C65.0671 14.7616 64.2901 12.8838 64.2901 10.6822C64.2901 8.48055 65.0671 6.61127 66.6209 5.04895C68.1748 3.50781 70.0525 2.72241 72.2584 2.72241C74.4642 2.72241 76.3335 3.50781 77.8874 5.04895C79.4412 6.60916 80.2287 8.48902 80.2287 10.6822C80.2287 12.8754 79.4412 14.7616 77.8874 16.3239ZM79.8159 3.13099C77.7244 1.04366 75.2031 0 72.2584 0C69.3137 0 66.7818 1.04366 64.6839 3.13099C62.6029 5.22043 61.5571 7.72903 61.5571 10.6801C61.5571 13.6311 62.6008 16.1503 64.6839 18.2376C66.7839 20.3271 69.3052 21.3707 72.2584 21.3707C75.2115 21.3707 77.7244 20.3271 79.8159 18.2376C81.9054 16.1503 82.9511 13.6311 82.9511 10.6801C82.9511 7.72903 81.9054 5.22043 79.8159 3.13099ZM77.8874 16.3239C76.3335 17.8841 74.4537 18.661 72.2584 18.661C70.0631 18.661 68.1832 17.8862 66.6209 16.3239C65.0671 14.7616 64.2901 12.8838 64.2901 10.6822C64.2901 8.48055 65.0671 6.61127 66.6209 5.04895C68.1748 3.50781 70.0525 2.72241 72.2584 2.72241C74.4642 2.72241 76.3335 3.50781 77.8874 5.04895C79.4412 6.60916 80.2287 8.48902 80.2287 10.6822C80.2287 12.8754 79.4412 14.7616 77.8874 16.3239ZM72.2584 0C69.3052 0 66.7818 1.04366 64.6839 3.13099C62.6029 5.22043 61.5571 7.72903 61.5571 10.6801C61.5571 13.6311 62.6008 16.1503 64.6839 18.2376C66.7839 20.3271 69.3052 21.3707 72.2584 21.3707C75.2115 21.3707 77.7244 20.3271 79.8159 18.2376C81.9054 16.1503 82.9511 13.6311 82.9511 10.6801C82.9511 7.72903 81.9054 5.22043 79.8159 3.13099C77.7244 1.04366 75.2031 0 72.2584 0ZM98.0536 0.268854V14.2154C98.0536 15.4305 97.6217 16.4573 96.777 17.3189C95.9133 18.1614 94.8781 18.5933 93.6609 18.5933C92.4436 18.5933 91.4169 18.1614 90.5532 17.3104C89.7 16.4488 89.2766 15.4221 89.2766 14.2175V0.268854H86.5521V14.2154C86.5521 16.1799 87.2443 17.846 88.6331 19.2453C90.0239 20.6234 91.7027 21.3242 93.6587 21.3242C95.6148 21.3242 97.302 20.6256 98.6929 19.2368C99.8424 18.0789 100.533 16.6605 100.763 14.9839V0.268854H98.0493H98.0536ZM77.8874 16.3239C76.3335 17.8841 74.4537 18.661 72.2584 18.661C70.0631 18.661 68.1832 17.8862 66.6209 16.3239C65.0671 14.7616 64.2901 12.8838 64.2901 10.6822C64.2901 8.48055 65.0671 6.61127 66.6209 5.04895C68.1748 3.50781 70.0525 2.72241 72.2584 2.72241C74.4642 2.72241 76.3335 3.50781 77.8874 5.04895C79.4412 6.60916 80.2287 8.48902 80.2287 10.6822C80.2287 12.8754 79.4412 14.7616 77.8874 16.3239ZM79.8159 3.13099C77.7244 1.04366 75.2031 0 72.2584 0C69.3137 0 66.7818 1.04366 64.6839 3.13099C62.6029 5.22043 61.5571 7.72903 61.5571 10.6801C61.5571 13.6311 62.6008 16.1503 64.6839 18.2376C66.7839 20.3271 69.3052 21.3707 72.2584 21.3707C75.2115 21.3707 77.7244 20.3271 79.8159 18.2376C81.9054 16.1503 82.9511 13.6311 82.9511 10.6801C82.9511 7.72903 81.9054 5.22043 79.8159 3.13099ZM77.8874 16.3239C76.3335 17.8841 74.4537 18.661 72.2584 18.661C70.0631 18.661 68.1832 17.8862 66.6209 16.3239C65.0671 14.7616 64.2901 12.8838 64.2901 10.6822C64.2901 8.48055 65.0671 6.61127 66.6209 5.04895C68.1748 3.50781 70.0525 2.72241 72.2584 2.72241C74.4642 2.72241 76.3335 3.50781 77.8874 5.04895C79.4412 6.60916 80.2287 8.48902 80.2287 10.6822C80.2287 12.8754 79.4412 14.7616 77.8874 16.3239ZM79.8159 3.13099C77.7244 1.04366 75.2031 0 72.2584 0C69.3137 0 66.7818 1.04366 64.6839 3.13099C62.6029 5.22043 61.5571 7.72903 61.5571 10.6801C61.5571 13.6311 62.6008 16.1503 64.6839 18.2376C66.7839 20.3271 69.3052 21.3707 72.2584 21.3707C75.2115 21.3707 77.7244 20.3271 79.8159 18.2376C81.9054 16.1503 82.9511 13.6311 82.9511 10.6801C82.9511 7.72903 81.9054 5.22043 79.8159 3.13099ZM77.8874 16.3239C76.3335 17.8841 74.4537 18.661 72.2584 18.661C70.0631 18.661 68.1832 17.8862 66.6209 16.3239C65.0671 14.7616 64.2901 12.8838 64.2901 10.6822C64.2901 8.48055 65.0671 6.61127 66.6209 5.04895C68.1748 3.50781 70.0525 2.72241 72.2584 2.72241C74.4642 2.72241 76.3335 3.50781 77.8874 5.04895C79.4412 6.60916 80.2287 8.48902 80.2287 10.6822C80.2287 12.8754 79.4412 14.7616 77.8874 16.3239ZM79.8159 3.13099C77.7244 1.04366 75.2031 0 72.2584 0C69.3137 0 66.7818 1.04366 64.6839 3.13099C62.6029 5.22043 61.5571 7.72903 61.5571 10.6801C61.5571 13.6311 62.6008 16.1503 64.6839 18.2376C66.7839 20.3271 69.3052 21.3707 72.2584 21.3707C75.2115 21.3707 77.7244 20.3271 79.8159 18.2376C81.9054 16.1503 82.9511 13.6311 82.9511 10.6801C82.9511 7.72903 81.9054 5.22043 79.8159 3.13099ZM77.8874 16.3239C76.3335 17.8841 74.4537 18.661 72.2584 18.661C70.0631 18.661 68.1832 17.8862 66.6209 16.3239C65.0671 14.7616 64.2901 12.8838 64.2901 10.6822C64.2901 8.48055 65.0671 6.61127 66.6209 5.04895C68.1748 3.50781 70.0525 2.72241 72.2584 2.72241C74.4642 2.72241 76.3335 3.50781 77.8874 5.04895C79.4412 6.60916 80.2287 8.48902 80.2287 10.6822C80.2287 12.8754 79.4412 14.7616 77.8874 16.3239ZM79.8159 3.13099C77.7244 1.04366 75.2031 0 72.2584 0C69.3137 0 66.7818 1.04366 64.6839 3.13099C62.6029 5.22043 61.5571 7.72903 61.5571 10.6801C61.5571 13.6311 62.6008 16.1503 64.6839 18.2376C66.7839 20.3271 69.3052 21.3707 72.2584 21.3707C75.2115 21.3707 77.7244 20.3271 79.8159 18.2376C81.9054 16.1503 82.9511 13.6311 82.9511 10.6801C82.9511 7.72903 81.9054 5.22043 79.8159 3.13099ZM77.8874 16.3239C76.3335 17.8841 74.4537 18.661 72.2584 18.661C70.0631 18.661 68.1832 17.8862 66.6209 16.3239C65.0671 14.7616 64.2901 12.8838 64.2901 10.6822C64.2901 8.48055 65.0671 6.61127 66.6209 5.04895C68.1748 3.50781 70.0525 2.72241 72.2584 2.72241C74.4642 2.72241 76.3335 3.50781 77.8874 5.04895C79.4412 6.60916 80.2287 8.48902 80.2287 10.6822C80.2287 12.8754 79.4412 14.7616 77.8874 16.3239ZM79.8159 3.13099C77.7244 1.04366 75.2031 0 72.2584 0C69.3137 0 66.7818 1.04366 64.6839 3.13099C62.6029 5.22043 61.5571 7.72903 61.5571 10.6801C61.5571 13.6311 62.6008 16.1503 64.6839 18.2376C66.7839 20.3271 69.3052 21.3707 72.2584 21.3707C75.2115 21.3707 77.7244 20.3271 79.8159 18.2376C81.9054 16.1503 82.9511 13.6311 82.9511 10.6801C82.9511 7.72903 81.9054 5.22043 79.8159 3.13099ZM77.8874 16.3239C76.3335 17.8841 74.4537 18.661 72.2584 18.661C70.0631 18.661 68.1832 17.8862 66.6209 16.3239C65.0671 14.7616 64.2901 12.8838 64.2901 10.6822C64.2901 8.48055 65.0671 6.61127 66.6209 5.04895C68.1748 3.50781 70.0525 2.72241 72.2584 2.72241C74.4642 2.72241 76.3335 3.50781 77.8874 5.04895C79.4412 6.60916 80.2287 8.48902 80.2287 10.6822C80.2287 12.8754 79.4412 14.7616 77.8874 16.3239ZM79.8159 3.13099C77.7244 1.04366 75.2031 0 72.2584 0C69.3137 0 66.7818 1.04366 64.6839 3.13099C62.6029 5.22043 61.5571 7.72903 61.5571 10.6801C61.5571 13.6311 62.6008 16.1503 64.6839 18.2376C66.7839 20.3271 69.3052 21.3707 72.2584 21.3707C75.2115 21.3707 77.7244 20.3271 79.8159 18.2376C81.9054 16.1503 82.9511 13.6311 82.9511 10.6801C82.9511 7.72903 81.9054 5.22043 79.8159 3.13099ZM53.5381 16.3324C52.1663 17.7105 50.4029 18.4112 48.2541 18.4112V3.02726C50.4029 3.02726 52.1663 3.71739 53.5381 5.08706C55.0919 6.64726 55.8689 8.51654 55.8689 10.7097C55.8689 12.9029 55.0919 14.7912 53.5381 16.3324ZM55.4772 3.15004C53.5783 1.24477 50.9321 0.28579 47.5365 0.266737H45.5508V21.1506H47.5365C50.93 21.1294 53.5762 20.1725 55.4772 18.2652C57.5582 16.1778 58.604 13.6586 58.604 10.7076C58.604 7.75655 57.5582 5.24795 55.4772 3.15004ZM53.5381 16.3324C52.1663 17.7105 50.4029 18.4112 48.2541 18.4112V3.02726C50.4029 3.02726 52.1663 3.71739 53.5381 5.08706C55.0919 6.64726 55.8689 8.51654 55.8689 10.7097C55.8689 12.9029 55.0919 14.7912 53.5381 16.3324ZM55.4772 3.15004C53.5783 1.24477 50.9321 0.28579 47.5365 0.266737H45.5508V21.1506H47.5365C50.93 21.1294 53.5762 20.1725 55.4772 18.2652C57.5582 16.1778 58.604 13.6586 58.604 10.7076C58.604 7.75655 57.5582 5.24795 55.4772 3.15004ZM53.5381 16.3324C52.1663 17.7105 50.4029 18.4112 48.2541 18.4112V3.02726C50.4029 3.02726 52.1663 3.71739 53.5381 5.08706C55.0919 6.64726 55.8689 8.51654 55.8689 10.7097C55.8689 12.9029 55.0919 14.7912 53.5381 16.3324ZM55.4772 3.15004C53.5783 1.24477 50.9321 0.28579 47.5365 0.266737H45.5508V21.1506H47.5365C50.93 21.1294 53.5762 20.1725 55.4772 18.2652C57.5582 16.1778 58.604 13.6586 58.604 10.7076C58.604 7.75655 57.5582 5.24795 55.4772 3.15004ZM53.5381 16.3324C52.1663 17.7105 50.4029 18.4112 48.2541 18.4112V3.02726C50.4029 3.02726 52.1663 3.71739 53.5381 5.08706C55.0919 6.64726 55.8689 8.51654 55.8689 10.7097C55.8689 12.9029 55.0919 14.7912 53.5381 16.3324ZM55.4772 3.15004C53.5783 1.24477 50.9321 0.28579 47.5365 0.266737H45.5508V21.1506H47.5365C50.93 21.1294 53.5762 20.1725 55.4772 18.2652C57.5582 16.1778 58.604 13.6586 58.604 10.7076C58.604 7.75655 57.5582 5.24795 55.4772 3.15004ZM53.5381 16.3324C52.1663 17.7105 50.4029 18.4112 48.2541 18.4112V3.02726C50.4029 3.02726 52.1663 3.71739 53.5381 5.08706C55.0919 6.64726 55.8689 8.51654 55.8689 10.7097C55.8689 12.9029 55.0919 14.7912 53.5381 16.3324ZM55.4772 3.15004C53.5783 1.24477 50.9321 0.28579 47.5365 0.266737H45.5508V21.1506H47.5365C50.93 21.1294 53.5762 20.1725 55.4772 18.2652C57.5582 16.1778 58.604 13.6586 58.604 10.7076C58.604 7.75655 57.5582 5.24795 55.4772 3.15004ZM53.5381 16.3324C52.1663 17.7105 50.4029 18.4112 48.2541 18.4112V3.02726C50.4029 3.02726 52.1663 3.71739 53.5381 5.08706C55.0919 6.64726 55.8689 8.51654 55.8689 10.7097C55.8689 12.9029 55.0919 14.7912 53.5381 16.3324ZM55.4772 3.15004C53.5783 1.24477 50.9321 0.28579 47.5365 0.266737H45.5508V21.1506H47.5365C50.93 21.1294 53.5762 20.1725 55.4772 18.2652C57.5582 16.1778 58.604 13.6586 58.604 10.7076C58.604 7.75655 57.5582 5.24795 55.4772 3.15004ZM53.5381 16.3324C52.1663 17.7105 50.4029 18.4112 48.2541 18.4112V3.02726C50.4029 3.02726 52.1663 3.71739 53.5381 5.08706C55.0919 6.64726 55.8689 8.51654 55.8689 10.7097C55.8689 12.9029 55.0919 14.7912 53.5381 16.3324ZM55.4772 3.15004C53.5783 1.24477 50.9321 0.28579 47.5365 0.266737H45.5508V21.1506H47.5365C50.93 21.1294 53.5762 20.1725 55.4772 18.2652C57.5582 16.1778 58.604 13.6586 58.604 10.7076C58.604 7.75655 57.5582 5.24795 55.4772 3.15004ZM53.5381 16.3324C52.1663 17.7105 50.4029 18.4112 48.2541 18.4112V3.02726C50.4029 3.02726 52.1663 3.71739 53.5381 5.08706C55.0919 6.64726 55.8689 8.51654 55.8689 10.7097C55.8689 12.9029 55.0919 14.7912 53.5381 16.3324ZM55.4772 3.15004C53.5783 1.24477 50.9321 0.28579 47.5365 0.266737H45.5508V21.1506H47.5365C50.93 21.1294 53.5762 20.1725 55.4772 18.2652C57.5582 16.1778 58.604 13.6586 58.604 10.7076C58.604 7.75655 57.5582 5.24795 55.4772 3.15004Z" fill="#2E4C63"/>
<path d="M150.271 11.7532V2.97843H152.746C153.944 2.97843 154.971 3.41029 155.824 4.26131C156.687 5.10386 157.119 6.13905 157.119 7.34572C157.119 8.55239 156.687 9.60664 155.824 10.4577C154.971 11.3193 153.944 11.7511 152.746 11.7511H150.271V11.7532ZM155.555 14.0036C156.063 13.8871 156.8 13.3431 157.761 12.3862C159.141 10.9954 159.831 9.32085 159.831 7.34784C159.831 5.37483 159.141 3.7363 157.761 2.33699C156.599 1.18748 155.172 0.486766 153.501 0.266602H147.565V21.1398H150.271V14.4629H152.746L156.918 21.1398H160.197L155.557 14.0036H155.555Z" fill="#2E4C63"/>
<path d="M68.499 40.6331C69.0071 40.5103 69.7374 39.9726 70.6964 39.0158C72.0767 37.627 72.7774 35.9504 72.7774 33.9774C72.7774 32.0044 72.0767 30.3659 70.6964 28.9666C69.5363 27.817 68.1158 27.1184 66.4371 26.8877H60.5117V47.7694H63.2151V41.0946H65.6792L69.8602 47.7694H73.1415L68.499 40.6331ZM63.2151 38.3828V29.608H65.6792C66.8795 29.608 67.9147 30.0399 68.7679 30.8824C69.6316 31.7355 70.0529 32.7707 70.0529 33.9774C70.0529 35.1841 69.6316 36.2362 68.7679 37.0893C67.9147 37.9425 66.8795 38.3828 65.6792 38.3828H63.2151Z" fill="#2E4C63"/>
<path d="M55.744 28.9666C54.586 27.817 53.1549 27.1184 51.4867 26.8877H45.5508V47.7694H48.2563V41.0946H50.7289C52.6849 41.0946 54.3552 40.3939 55.744 39.0158C57.1263 37.627 57.8165 35.9504 57.8165 33.9774C57.8165 32.0044 57.1263 30.3659 55.744 28.9666ZM53.8069 37.0893C52.9538 37.9425 51.9292 38.3828 50.7289 38.3828H48.2563V29.608H50.7289C51.9292 29.608 52.9538 30.0399 53.8069 30.8824C54.6707 31.7355 55.1025 32.7707 55.1025 33.9774C55.1025 35.1841 54.6707 36.2362 53.8069 37.0893Z" fill="#2E4C63"/>
<path d="M156.732 26.8877V29.5995H151.86V47.7694H149.149V29.5995H144.275V26.8877H156.732Z" fill="#2E4C63"/>
<path d="M138.07 40.6331C138.578 40.5103 139.317 39.9726 140.276 39.0158C141.656 37.627 142.349 35.9504 142.349 33.9774C142.349 32.0044 141.656 30.3659 140.276 28.9666C139.116 27.817 137.687 27.1184 136.019 26.8877H130.083V47.7694H132.786V41.0946H135.261L139.432 47.7694H142.713L138.07 40.6331ZM132.786 38.3828V29.608H135.261C136.459 29.608 137.486 30.0399 138.339 30.8824C139.203 31.7355 139.635 32.7707 139.635 33.9774C139.635 35.1841 139.203 36.2362 138.339 37.0893C137.486 37.9425 136.459 38.3828 135.261 38.3828H132.786Z" fill="#2E4C63"/>
<path d="M117.932 29.5995V35.9779H126.487V38.6813H117.932V45.0597H126.487V47.7694H115.229V26.8877H126.487V29.5995H117.932Z" fill="#2E4C63"/>
<path d="M110.04 28.9666C108.88 27.817 107.46 27.1184 105.783 26.8877H99.8555V47.7694H102.55V41.0946H105.023C106.979 41.0946 108.649 40.3939 110.04 39.0158C111.42 37.627 112.111 35.9504 112.111 33.9774C112.111 32.0044 111.42 30.3659 110.04 28.9666ZM108.114 37.0893C107.25 37.9425 106.223 38.3828 105.023 38.3828H102.55V29.608H105.023C106.223 29.608 107.25 30.0399 108.114 30.8824C108.965 31.7355 109.397 32.7707 109.397 33.9774C109.397 35.1841 108.965 36.2362 108.114 37.0893Z" fill="#2E4C63"/>
<path d="M93.5274 29.7522C91.4379 27.6649 88.923 26.6191 85.9719 26.6191C83.0209 26.6191 80.4953 27.6649 78.4038 29.7522C76.3143 31.8396 75.2686 34.3609 75.2686 37.3013C75.2686 40.2418 76.3143 42.78 78.4038 44.8695C80.4953 46.9462 83.0166 48.0005 85.9719 48.0005C88.9272 48.0005 91.4379 46.9462 93.5274 44.8695C95.6274 42.78 96.6626 40.2524 96.6626 37.3013C96.6626 34.3503 95.6274 31.8396 93.5274 29.7522ZM91.6094 42.943C90.045 44.5032 88.1757 45.2802 85.9719 45.2802C83.7682 45.2802 81.8946 44.5032 80.3323 42.943C78.7785 41.3807 78.0016 39.5136 78.0016 37.3013C78.0016 35.0891 78.7785 33.2304 80.3323 31.6787C81.8862 30.1248 83.766 29.35 85.9719 29.35C88.1778 29.35 90.045 30.1248 91.6094 31.6787C93.1527 33.2304 93.9402 35.106 93.9402 37.3013C93.9402 39.4966 93.1527 41.3807 91.6094 42.943Z" fill="#2E4C63"/>
<path d="M165.563 39.3926L158.338 26.8877H161.448L166.907 36.3378L172.384 26.8877H175.504L168.266 39.3926V47.7694H165.563V39.3926Z" fill="#2E4C63"/>
</svg>
